name processed_emg_signals
nRows=52
nColumns=7
 
endheader
time	LGLTMED	LRF	LADDLONG	LBF	LTA	LGM
14.399999999999928	0.4870177440999135	0.7787554189554522	0.2530033679905576	0.4382911308414421	0.5717629370566156	0.4487427748059802
14.409999999999927	0.489009009667873	0.7822798815458903	0.2542408792399833	0.4370983256330042	0.574947996066446	0.4504756066628198
14.419999999999927	0.4909665712408332	0.7858693682133289	0.2554749909913198	0.4358604095705918	0.5781834541015384	0.4522101869772417
14.429999999999927	0.4928896664882961	0.7895214924572722	0.2567047449514054	0.4345787658531203	0.5814659651970856	0.45394413218858
14.439999999999927	0.4947776280504695	0.793233689719794	0.2579291830959457	0.4332548542445464	0.5847921164900125	0.4556751470038941
14.449999999999926	0.4966298831602157	0.7970032213478513	0.2591473490565097	0.4318902069842822	0.5881584324516195	0.4574010280915696
14.459999999999926	0.4984459529348801	0.8008271791968921	0.2603582895663465	0.4304864245348554	0.5915613794281258	0.4591196673835054
14.469999999999926	0.5002254513450963	0.8047024908734598	0.2615610559612297	0.4290451711853778	0.5949973704848976	0.4608290549779891
14.479999999999926	0.501968083869047	0.8086259256117219	0.262754705731148	0.4275681705293509	0.5984627705486468	0.4625272816378503
14.489999999999926	0.5036736458425275	0.812594100776171	0.2639383041184406	0.4260572008348773	0.6019539018405389	0.4642125408806818
14.499999999999925	0.5053420205172016	0.8166034889799506	0.265110925757864	0.4245140903248936	0.6054670495922878	0.4658831306599655
14.509999999999925	0.5069731768414283	0.8206504258055742	0.26627165635412	0.4229407123846883	0.6089984680365359	0.4675374546373158
14.519999999999925	0.5085671669788896	0.824731118112416	0.2674195943921419	0.4213389807137099	0.6125443866620559	0.4691740230472446
14.529999999999925	0.510124123580619	0.8288416529128179	0.2685538528754245	0.4197108444386208	0.6161010167231621	0.4707914531566805
14.539999999999925	0.5116442568253097	0.8329780067960489	0.2696735610871772	0.4180582832045167	0.619664557991417	0.47238846932312
14.549999999999924	0.5131278512423256	0.837136055876662	0.2707778663689125	0.4163833022612277	0.6232312057357612	0.4739639026569722
14.559999999999924	0.5145752623316641	0.841311586240756	0.2718659359109096	0.4146879275617214	0.6267971579152867	0.4755166902949922
14.569999999999924	0.5159869129955825	0.8455003048610589	0.2729369585491195	0.4129742008892627	0.6303586225666985	0.4770458742924018
14.579999999999924	0.5173632897969654	0.8496978509491505	0.2739901465630798	0.4112441750293616	0.6339118253665668	0.4785506001415593
14.589999999999923	0.5187049390594574	0.8538998077110869	0.2750247374693171	0.4094999090018528	0.6374530173464027	0.4800301149262383
14.599999999999923	0.5200124628238997	0.8581017144702132	0.2760399958042743	0.4077434633674291	0.6409784827368284	0.4814837651224006
14.609999999999923	0.5212865146755327	0.862299079118522	0.2770352148902822	0.4059768956220199	0.6444845469151773	0.482910994059371
14.619999999999923	0.5225277954568842	0.8664873908549062	0.2780097185777222	0.4042022556911681	0.6479675844293238	0.4843113390582819
14.629999999999923	0.5237370488822071	0.870662133165605	0.2789628629560002	0.4024215815355466	0.6514240270689117	0.4856844282670532
14.639999999999922	0.524915057070137	0.8748187969988922	0.279894038025647	0.4006368948773727	0.6548503719535264	0.4870299772122823
14.649999999999922	0.526062636011555	0.8789528940828981	0.2808026693231219	0.3988501970563678	0.6582431896055826	0.4883477850894429
14.659999999999922	0.5271806309902844	0.883059970332286	0.2816882194894701	0.3970634650226186	0.6615991319740663	0.4896377308142183
14.669999999999922	0.5282699119750338	0.8871356192863925	0.2825501897735887	0.3952786474726542	0.6649149403735412	0.4908997688601379
14.679999999999922	0.5293313690020839	0.8911754955186321	0.2833881214610054	0.3934976611340663	0.6681874533012124	0.4921339249100885
14.689999999999921	0.5303659075690043	0.8951753279541633	0.2842015972198353	0.3917223872030825	0.6714136140932326	0.4933402913509768
14.699999999999921	0.5313744440599417	0.899130933030114	0.2849902423560458	0.3899546679389045	0.6745904783799515	0.4945190226417092
14.709999999999921	0.532357901222961	0.9030382276303304	0.2857537259703296	0.3881963034182935	0.677715221299045	0.4956703305844535
14.71999999999992	0.5333172037192573	0.9068932417249262	0.2864917620085715	0.3864490484538225	0.6807851444248713	0.4967944795285801
14.72999999999992	0.5342532737631436	0.910692130644796	0.2872041101972345	0.38471460967915	0.6837976823721326	0.4978917815357477
14.73999999999992	0.5351670268709489	0.9144311869230496	0.2878905768546663	0.3829946428044268	0.6867504090312292	0.4989625915338696
14.74999999999992	0.5360593677364179	0.9181068516391984	0.2885510155691265	0.3812907500447096	0.6896410433921761	0.5000073024871335
14.75999999999992	0.5369311862501055	0.9217157252067588	0.2891853277348122	0.3796044777236452	0.6924674549137955	0.5010263406086723
14.76999999999992	0.53778335368001	0.925254577549732	0.2897934629377156	0.3779373140541596	0.6952276683956663	0.502020160641515
14.77999999999992	0.5386167190303326	0.9287203576170572	0.2903754191839148	0.3762906870972183	0.6979198683132671	0.5029892412323743
14.78999999999992	0.5394321055943317	0.9321102021871804	0.290931242963579	0.3746659628992942	0.7005424025824164	0.5039340804212282
14.799999999999919	0.5402303077160514	0.9354214439183608	0.2914610291446733	0.3730644438088679	0.7030937857273742	0.5048551912681425
14.809999999999919	0.5410120877744202	0.9386516186039532	0.2919649206911425	0.3714873669720024	0.7055727014359131	0.5057530976369226
14.819999999999919	0.5417781734017645	0.9417984715950602	0.2924431082010058	0.3699359030067822	0.7079780044929868	0.5066283301536255
14.829999999999918	0.5425292549475246	0.9448599633558326	0.2928958292609844	0.3684111548561668	0.7103087220911486	0.507481422356119
14.839999999999918	0.5432659831970188	0.9478342741204512	0.2933233676162735	0.3669141568186382	0.7125640545205245	0.5083129070496952
14.849999999999918	0.5439889673546001	0.9507198076264588	0.2937260521565339	0.3654458737560601	0.7147433752435212	0.5091233128821618
14.859999999999918	0.5446987733000425	0.9535151939052412	0.2941042557217518	0.3640072004783117	0.7168462303606044	0.5099131611505213
14.869999999999918	0.5453959221262317	0.9562192911155286	0.2944583937332516	0.3625989613041933	0.7188723374737845	0.5106829628498067
14.879999999999917	0.546080888964868	0.9588311864097668	0.2947889226564147	0.3612219097977761	0.7208215839545596	0.511433215973077
14.889999999999917	0.5467541021053547	0.9613501958273372	0.2950963383025841	0.3598767286786928	0.7226940246232797	0.5121644030700073
14.899999999999917	0.5474159424104409	0.9637758632144616	0.2953811739782983	0.3585640299041147	0.7244898788475745	0.5128769890699868
14.909999999999917	0.5480667430308066	0.9661079581776748	0.2956439984903283	0.3572843549195141	0.7262095270688834	0.5135714193740023
